<svg width="48" height="48" viewBox="0 0 48 48" fill="none" xmlns="http://www.w3.org/2000/svg">
<path fill-rule="evenodd" clip-rule="evenodd" d="M16.5255 11.9999C17.508 11.9817 18.4892 12.0824 19.4475 12.2999C20.2544 12.4761 21.0205 12.8039 21.705 13.2659C22.3372 13.7253 22.8375 14.343 23.1555 15.0569C23.521 15.9348 23.6973 16.8798 23.673 17.8304C23.7145 18.8742 23.4479 19.9071 22.9065 20.8004C22.3369 21.6441 21.5496 22.3179 20.628 22.7504C21.8786 23.0876 22.9679 23.8599 23.7 24.9284C24.4028 26.0606 24.756 27.3749 24.7155 28.7069C24.7387 29.7689 24.5191 30.8221 24.0735 31.7864C23.6616 32.6276 23.0585 33.3606 22.3125 33.9269C21.5444 34.487 20.6801 34.9013 19.7625 35.1494C18.8109 35.4127 17.8278 35.5449 16.8405 35.5424H6V11.9999H16.5255ZM15.9 21.5219C16.672 21.5537 17.4319 21.3226 18.0555 20.8664C18.3541 20.6005 18.5865 20.2685 18.7339 19.8968C18.8813 19.5252 18.9397 19.1242 18.9045 18.7259C18.9245 18.2607 18.8319 17.7976 18.6345 17.3759C18.4671 17.0401 18.2068 16.7595 17.8845 16.5674C17.5581 16.3559 17.1914 16.2144 16.8075 16.1519C16.391 16.0712 15.9672 16.0345 15.543 16.0424H10.911V21.5429H15.9V21.5219ZM16.17 31.5449C16.6369 31.5512 17.1028 31.5009 17.5575 31.3949C17.9731 31.3031 18.3672 31.1326 18.7185 30.8924C19.0627 30.6524 19.3408 30.3294 19.527 29.9534C19.7429 29.4739 19.8422 28.9501 19.8165 28.4249C19.8633 27.9463 19.7999 27.4633 19.6312 27.013C19.4624 26.5626 19.1928 26.1569 18.843 25.8269C18.1016 25.2808 17.1929 25.0103 16.2735 25.0619H10.911V31.5449H16.17Z" fill="#575757"/>
<path fill-rule="evenodd" clip-rule="evenodd" d="M31.71 31.4579C32.0955 31.8152 32.5495 32.0904 33.0446 32.2667C33.5397 32.4431 34.0655 32.517 34.59 32.4839C35.4215 32.5049 36.2369 32.2519 36.9105 31.7639C37.4585 31.4076 37.8735 30.8803 38.091 30.2639H42.0075C41.5902 32.0186 40.5712 33.5716 39.1275 34.6529C37.7426 35.5721 36.1059 36.0377 34.4445 35.9849C33.2587 36.0005 32.0819 35.7775 30.984 35.3294C29.9908 34.9152 29.1001 34.2891 28.374 33.4949C27.6507 32.6627 27.095 31.6985 26.7375 30.6554C26.3363 29.4895 26.1399 28.2628 26.157 27.0299C26.1497 25.8176 26.3527 24.6133 26.757 23.4704C27.3002 21.8626 28.3387 20.4681 29.7236 19.4872C31.1085 18.5063 32.7685 17.9893 34.4655 18.0104C35.7184 17.9842 36.9573 18.2774 38.0655 18.8624C39.0673 19.4117 39.9314 20.181 40.593 21.1124C41.2698 22.0897 41.7549 23.1867 42.0225 24.3449C42.316 25.5887 42.4207 26.8695 42.333 28.1444H30.6675C30.573 29.3422 30.9467 30.53 31.71 31.4579ZM36.828 22.5044C36.5016 22.1779 36.1089 21.9251 35.6766 21.7631C35.2442 21.6012 34.7821 21.5337 34.3215 21.5654C33.7104 21.5421 33.1037 21.6775 32.5605 21.9584C32.1299 22.1955 31.7497 22.5145 31.4415 22.8974C31.1684 23.2564 30.9648 23.6635 30.8415 24.0974C30.7304 24.4593 30.6609 24.8327 30.6345 25.2104H37.86C37.7971 24.2259 37.4384 23.2833 36.831 22.5059L36.828 22.5044Z" fill="#575757"/>
<path d="M29.703 13.5719H38.757V15.8864H29.703V13.5719Z" fill="#575757"/>
</svg>
