<svg width="137" height="45" viewBox="0 0 137 45" fill="none" xmlns="http://www.w3.org/2000/svg">
<path fill-rule="evenodd" clip-rule="evenodd" d="M34.2514 44.6496H22.3949L13.504 9.73987C13.082 8.13402 12.186 6.71436 10.868 6.04526C7.57867 4.36377 3.95409 3.02557 0 2.35065V1.00662H19.0999C21.7359 1.00662 23.713 3.02557 24.0425 5.37034L28.6556 30.5519L40.5063 1.00662H52.0333L34.2514 44.6496ZM58.6235 44.6496H47.426L56.6464 1.00662H67.8439L58.6235 44.6496ZM82.3306 13.097C82.6601 10.7464 84.6372 9.40235 86.9437 9.40235C90.5683 9.06489 94.5166 9.73981 97.8117 11.4155L99.7887 2.01895C96.4937 0.674921 92.8691 0 89.5798 0C78.7118 0 70.8037 6.0452 70.8037 14.4352C70.8037 20.8178 76.4053 24.1692 80.3594 26.1881C84.6372 28.2012 86.2847 29.5453 85.9552 31.5584C85.9552 34.5781 82.6601 35.9221 79.3708 35.9221C75.4168 35.9221 71.4627 34.9155 67.8439 33.2341L65.8668 42.6364C69.8209 44.3121 74.0987 44.987 78.0528 44.987C90.2388 45.3186 97.8117 39.2792 97.8117 30.2144C97.8117 18.7989 82.3306 18.1298 82.3306 13.097V13.097ZM137 44.6496L128.109 1.00662H118.559C116.582 1.00662 114.605 2.35065 113.946 4.36377L97.4822 44.6496H109.009L111.31 38.2727H125.473L126.791 44.6496H137ZM120.207 12.7597L123.496 29.208H114.276L120.207 12.7597Z" fill="white"/>
</svg>
