<svg width="48" height="48" viewBox="0 0 48 48" fill="none" xmlns="http://www.w3.org/2000/svg">
<path d="M24.5701 16.9323C21.2204 12.6673 18.4193 11.042 15.0669 11.042C8.23214 11.042 2.99548 19.9367 2.99548 29.3511C2.99548 35.2425 5.84559 38.9582 10.6195 38.9582C14.0555 38.9582 16.5266 37.3385 20.9195 29.6593C20.9195 29.6593 22.7508 26.4255 24.0107 24.1978C24.452 24.9105 24.916 25.6773 25.4054 26.5017L27.4656 29.9672C31.4782 36.6825 33.7143 38.9582 37.7655 38.9582C42.4164 38.9582 45.0045 35.1917 45.0045 29.178C45.0045 19.3205 39.6499 11.042 33.1448 11.042C29.7003 11.042 27.0077 13.6365 24.5701 16.9323ZM31.012 26.8772L28.549 22.7693C27.8826 21.6853 27.2439 20.689 26.6275 19.7759C28.8471 16.3494 30.6784 14.6423 32.8562 14.6423C37.3806 14.6423 41.0002 21.3037 41.0002 29.4859C41.0002 32.6047 39.9784 34.4146 37.8618 34.4146C35.8332 34.4146 34.8639 33.0749 31.012 26.8772ZM7.53898 29.4282C7.53898 22.5934 10.9467 15.6049 15.0091 15.6049C17.2089 15.6049 19.0472 16.8754 21.8631 20.9065C19.1893 25.0076 17.5696 27.5798 17.5696 27.5798C14.008 33.1631 12.7758 34.4146 10.7929 34.4146C8.75195 34.4146 7.53898 32.6229 7.53898 29.4282Z" fill="#3A3838"/>
</svg>
