<svg width="165" height="45" viewBox="0 0 165 45" fill="none" xmlns="http://www.w3.org/2000/svg">
<path d="M2.97928 25.88C13.2594 17.9939 20.8901 15.1319 32.2721 17.4517C42.5508 19.5466 52.9097 27.4842 61.8824 33.4752C72.9914 40.8926 95.7733 48.7375 105.336 31.6513C112.761 18.3843 107.13 0.412254 93.765 3.13968C88.6123 4.19116 84.8667 12.1906 86.1926 18.3103C87.6246 24.92 94.1887 28.9596 98.8219 31.1094C111.265 36.8832 122.196 22.5466 134.363 21.5171C145.731 20.5552 152.981 28.0459 160.07 37.7819C160.677 38.6159 161.017 33.7034 161.194 32.4881C161.841 28.0326 162.25 30.1111 161.761 33.4799C161.446 35.6465 161.668 40.3824 159.564 38.8201C158.045 37.693 154.611 36.9891 152.763 36.7206" stroke="#581C6D" stroke-width="5" stroke-linecap="round"/>
</svg>
